<?xml version="1.0" standalone="no"?><!DOCTYPE svg PUBLIC "-//W3C//DTD SVG 1.1//EN" "http://www.w3.org/Graphics/SVG/1.1/DTD/svg11.dtd"><svg t="1657459885762" class="icon" viewBox="0 0 1024 1024" version="1.1" xmlns="http://www.w3.org/2000/svg" p-id="2319" data-spm-anchor-id="a313x.7781069.0.i12" width="200" height="200" xmlns:xlink="http://www.w3.org/1999/xlink"><defs><style type="text/css">@font-face { font-family: feedback-iconfont; src: url("//at.alicdn.com/t/font_1031158_u69w8yhxdu.woff2?t=1630033759944") format("woff2"), url("//at.alicdn.com/t/font_1031158_u69w8yhxdu.woff?t=1630033759944") format("woff"), url("//at.alicdn.com/t/font_1031158_u69w8yhxdu.ttf?t=1630033759944") format("truetype"); }
</style></defs><path d="M923.81 228L523.13 54.37a25 25 0 0 0-19.87 0L102.57 228a25 25 0 0 0-15.06 22.94V768a25 25 0 0 0 15.06 22.94L503.26 964.5a25 25 0 0 0 19.87 0l400.68-173.58A25 25 0 0 0 938.88 768V250.89A25 25 0 0 0 923.81 228z m-34.93 523.57L513.19 914.32 137.51 751.57V267.3l375.68-162.75L888.88 267.3z" fill="#f05e07" p-id="2320" data-spm-anchor-id="a313x.7781069.0.i14" class="selected"></path><path d="M260.22 492.47h182.9a25 25 0 0 0 25-25v-182.9a25 25 0 0 0-25-25h-182.9a25 25 0 0 0-25 25v182.9a25 25 0 0 0 25 25z m25-182.9h132.9v132.9h-132.9zM565 492.47h182.9a25 25 0 0 0 25-25v-182.9a25 25 0 0 0-25-25H565a25 25 0 0 0-25 25v182.9a25 25 0 0 0 25 25z m25-182.9h132.9v132.9H590zM445.24 533.27h-182.9a25 25 0 0 0-25 25v182.9a25 25 0 0 0 25 25h182.9a25 25 0 0 0 25-25v-182.9a25 25 0 0 0-25-25z m-25 182.9h-132.9v-132.9h132.9zM565 766.17h182.9a25 25 0 0 0 25-25v-182.9a25 25 0 0 0-25-25H565a25 25 0 0 0-25 25v182.9a25 25 0 0 0 25 25z m25-182.9h132.9v132.9H590z" fill="#ffffff" p-id="2321" data-spm-anchor-id="a313x.7781069.0.i13" class=""></path></svg>